<?xml version="1.0" encoding="utf-8"?>
<!-- Generator: Adobe Illustrator 22.0.1, SVG Export Plug-In . SVG Version: 6.00 Build 0)  -->
<svg version="1.1" xmlns="http://www.w3.org/2000/svg" xmlns:xlink="http://www.w3.org/1999/xlink" x="0px" y="0px"
	 viewBox="0 0 659 492" style="enable-background:new 0 0 659 492;" xml:space="preserve">
<style type="text/css">
	.st0{opacity:0.1;fill:url(#SVGID_1_);}
	.st1{opacity:4.000000e-02;}
	.st2{fill-rule:evenodd;clip-rule:evenodd;fill:#595958;}
	.st3{fill:#FFFFFF;}
	.st4{fill:none;stroke:#C7C7C7;stroke-width:0.5;}
	.st5{fill:none;stroke:#6A0047;stroke-width:0.5;}
</style>
<g id="FreeVector.com_BG">
	
		<linearGradient id="SVGID_1_" gradientUnits="userSpaceOnUse" x1="-93.0268" y1="246.8887" x2="966.2197" y2="246.8887" gradientTransform="matrix(0 1 1 0 82.6113 -82.6113)">
		<stop  offset="0.2582" style="stop-color:#CCCCCC"/>
		<stop  offset="0.3245" style="stop-color:#DFDFDF"/>
		<stop  offset="0.3985" style="stop-color:#EDEDED"/>
		<stop  offset="0.4615" style="stop-color:#F2F2F2"/>
		<stop  offset="0.5046" style="stop-color:#EAEAEA"/>
		<stop  offset="0.5706" style="stop-color:#D5D5D5"/>
		<stop  offset="0.6515" style="stop-color:#B2B2B2"/>
		<stop  offset="0.7432" style="stop-color:#828282"/>
		<stop  offset="0.7473" style="stop-color:#808080"/>
		<stop  offset="0.7876" style="stop-color:#868686"/>
		<stop  offset="0.8444" style="stop-color:#989898"/>
		<stop  offset="0.9106" style="stop-color:#B6B6B6"/>
		<stop  offset="0.9505" style="stop-color:#CCCCCC"/>
	</linearGradient>
	<rect class="st0" width="659" height="492"/>
	<g class="st1">
		<polygon class="st2" points="6.4,492 0,482.8 0,492 		"/>
		<polygon class="st2" points="33.2,492 0,444.3 0,460.4 21.9,492 		"/>
		<polygon class="st2" points="59.9,492 0,405.8 0,421.9 48.7,492 		"/>
		<polygon class="st2" points="86.7,492 0,367.2 0,383.4 75.5,492 		"/>
		<polygon class="st2" points="113.5,492 0,328.7 0,344.9 102.2,492 		"/>
		<polygon class="st2" points="140.2,492 0,290.2 0,306.4 129,492 		"/>
		<polygon class="st2" points="167,492 0,251.7 0,267.9 155.8,492 		"/>
		<polygon class="st2" points="193.8,492 0,213.2 0,229.3 182.5,492 		"/>
		<polygon class="st2" points="220.5,492 0,174.7 0,190.8 209.3,492 		"/>
		<polygon class="st2" points="247.3,492 0,136.2 0,152.3 236.1,492 		"/>
		<polygon class="st2" points="274.1,492 0,97.6 0,113.8 262.8,492 		"/>
		<polygon class="st2" points="300.8,492 0,59.1 0,75.3 289.6,492 		"/>
		<polygon class="st2" points="327.6,492 0,20.6 0,36.8 316.4,492 		"/>
		<polygon class="st2" points="354.4,492 12.4,0 1.2,0 343.1,492 		"/>
		<polygon class="st2" points="381.1,492 39.2,0 28,0 369.9,492 		"/>
		<polygon class="st2" points="407.9,492 66,0 54.7,0 396.7,492 		"/>
		<polygon class="st2" points="434.6,492 92.7,0 81.5,0 423.4,492 		"/>
		<polygon class="st2" points="461.4,492 119.5,0 108.3,0 450.2,492 		"/>
		<polygon class="st2" points="488.2,492 146.3,0 135,0 477,492 		"/>
		<polygon class="st2" points="514.9,492 173,0 161.8,0 503.7,492 		"/>
		<polygon class="st2" points="541.7,492 199.8,0 188.6,0 530.5,492 		"/>
		<polygon class="st2" points="568.5,492 226.6,0 215.3,0 557.3,492 		"/>
		<polygon class="st2" points="595.2,492 253.3,0 242.1,0 584,492 		"/>
		<polygon class="st2" points="622,492 280.1,0 268.9,0 610.8,492 		"/>
		<polygon class="st2" points="648.8,492 306.9,0 295.6,0 637.5,492 		"/>
		<polygon class="st2" points="659,468.2 333.6,0 322.4,0 659,484.4 		"/>
		<polygon class="st2" points="659,429.7 360.4,0 349.2,0 659,445.8 		"/>
		<polygon class="st2" points="659,391.2 387.2,0 375.9,0 659,407.3 		"/>
		<polygon class="st2" points="659,352.7 413.9,0 402.7,0 659,368.8 		"/>
		<polygon class="st2" points="659,314.1 440.7,0 429.5,0 659,330.3 		"/>
		<polygon class="st2" points="659,275.6 467.4,0 456.2,0 659,291.8 		"/>
		<polygon class="st2" points="659,237.1 494.2,0 483,0 659,253.3 		"/>
		<polygon class="st2" points="659,198.6 521,0 509.8,0 659,214.8 		"/>
		<polygon class="st2" points="659,160.1 547.7,0 536.5,0 659,176.2 		"/>
		<polygon class="st2" points="659,121.6 574.5,0 563.3,0 659,137.7 		"/>
		<polygon class="st2" points="659,83.1 601.3,0 590,0 659,99.2 		"/>
		<polygon class="st2" points="659,44.5 628,0 616.8,0 659,60.7 		"/>
		<polygon class="st2" points="659,6 654.8,0 643.6,0 659,22.2 		"/>
	</g>
</g>
<g id="FreeVector.com_License">
	<g>
		<g id="FreeVector.com_Logo_20_">
			<g id="FreeVector.com_Logo_21_">
				<path d="M125.2,503.4c0-0.9-0.8-1.5-1.6-1.5c-1.9,0-2.1,1.6-2.1,3c0,1.3,0.6,2.7,2,2.7c1.1,0,1.7-0.7,1.9-1.7h3.2
					c-0.3,2.7-2.4,4.3-5.1,4.3c-3,0-5.3-2.1-5.3-5.2c0-3.2,2-5.5,5.3-5.5c2.5,0,4.8,1.3,5,4H125.2z"/>
				<path d="M133.8,499.5c-3.1,0-5.3,2.3-5.3,5.3c0,3,2.2,5.3,5.3,5.3c3.1,0,5.3-2.3,5.3-5.3C139.2,501.8,137,499.5,133.8,499.5z"/>
				<path d="M116.5,507c-0.9,0-1.5,0.6-1.5,1.5c0,0.8,0.6,1.5,1.5,1.5c0.9,0,1.5-0.6,1.5-1.5C117.9,507.6,117.3,507,116.5,507z"/>
				<path d="M139.4,500.1h3.1v1.4h0c0.6-1,1.6-1.6,2.8-1.6c1.2,0,2.3,0.4,2.9,1.6c0.8-1,1.7-1.6,3.1-1.6c3.1,0,3.5,2.4,3.5,4.3v5.9
					h-3.2v-5.8c0-1.1-0.5-1.7-1.3-1.7c-1.4,0-1.5,1.1-1.5,2.7v4.8h-3.2v-5.6c0-1.2-0.3-1.9-1.2-1.9c-1.2,0-1.7,0.7-1.7,2.7v4.8h-3.2
					V500.1z"/>
				<polygon points="73.7,509.9 70,509.9 66.7,500.1 70,500.1 71.8,506.6 71.9,506.6 73.7,500.1 76.9,500.1 				"/>
				<path d="M78.7,505.8c0.1,1.3,0.8,2.2,2.2,2.2c0.8,0,1.5-0.4,1.8-1.1h3c-0.6,2.3-2.7,3.2-4.9,3.2c-3.2,0-5.3-1.9-5.3-5.2
					c0-3,2.4-5.1,5.3-5.1c3.5,0,5.2,2.6,5.1,5.9H78.7z"/>
				<path d="M92.7,503.7c0-0.8-0.8-1.4-1.6-1.4c-1.8,0-2.1,1.5-2.1,2.9c0,1.3,0.5,2.6,1.9,2.6c1.1,0,1.7-0.6,1.8-1.7h3.1
					c-0.3,2.6-2.3,4.1-4.9,4.1c-2.9,0-5.1-2-5.1-5c0-3.1,2-5.3,5.1-5.3c2.4,0,4.6,1.3,4.8,3.9H92.7z"/>
				<path d="M102,502.2h-2v4.4c0,0.8,0.5,0.9,1.1,0.9c0.3,0,0.5,0,0.8,0v2.4c-0.6,0-1.2,0.1-1.7,0.1c-2.7,0-3.4-0.8-3.4-3.4v-4.3
					h-1.6v-2.1h1.6v-3h3.2v3h2V502.2z"/>
				<path d="M106.3,499.8c-3,0-5.1,2.2-5.1,5.2c0,2.9,2.1,5.2,5.1,5.2c3,0,5.2-2.2,5.2-5.2C111.5,502.1,109.4,499.8,106.3,499.8z"/>
				<path d="M111.3,500.1h3.1v1.7h0c0.5-1.2,1.6-1.9,2.9-1.9c0.2,0,0.5,0,0.8,0.1v2.9c-0.4-0.1-0.8-0.2-1.2-0.2
					c-1.6,0-2.4,1.1-2.4,2.3v4.8h-3.2V500.1z"/>
				<path d="M41.6,500.1h3.1v1.7h0c0.5-1.2,1.6-1.9,2.9-1.9c0.2,0,0.5,0,0.7,0.1v2.9c-0.4-0.1-0.8-0.2-1.2-0.2
					c-1.6,0-2.4,1.1-2.4,2.3v4.8h-3.2V500.1z"/>
				<path d="M50.5,505.8c0.1,1.3,0.8,2.2,2.2,2.2c0.8,0,1.5-0.4,1.8-1.1h3c-0.6,2.3-2.7,3.2-4.9,3.2c-3.2,0-5.3-1.9-5.3-5.2
					c0-3,2.4-5.1,5.3-5.1c3.5,0,5.2,2.6,5.1,5.9H50.5z"/>
				<path d="M60.6,505.8c0.1,1.3,0.8,2.2,2.2,2.2c0.8,0,1.5-0.4,1.8-1.1h3c-0.6,2.3-2.7,3.2-4.9,3.2c-3.2,0-5.3-1.9-5.3-5.2
					c0-3,2.4-5.1,5.3-5.1c3.5,0,5.2,2.6,5.1,5.9H60.6z"/>
				<path d="M41,498.7c0.3,0,0.6,0,0.9,0.1v-2.3c-0.5,0-1-0.1-1.5-0.1c-2.7,0-3.7,0.9-3.7,3.7h-1.5v2.1h1.5v7.7h3.2v-7.7h1.9v-2.1
					h-1.9v-0.4C39.8,498.8,40.3,498.7,41,498.7z"/>
			</g>
			<g id="FreeVector_Icon_3_">
				<path class="st3" d="M31.9,503.2c0,4-3.2,7.2-7.2,7.2c-4,0-7.2-3.2-7.2-7.2c0-4,3.2-7.2,7.2-7.2C28.7,496,31.9,499.2,31.9,503.2
					z"/>
				<g>
					<path d="M24.7,496c-0.7,0-1.3,0.1-1.9,0.2c0.2,0,0.4,0.2,0.5,0.5c0,0,1.4,4.5,1.5,5c0.2,0.5,0.4,1.1,0.4,1.1
						c-0.1,0.1-0.2,0.2-0.3,0.4c-0.1,0.3-0.2,0.5-0.2,0.8c-0.2-0.4-1-1.4-1.6-2c0,0,0-0.4-0.2-0.9c-0.1-0.4-0.9-3.3-0.9-3.3
						c-0.1-0.5-0.1-1,0.2-1.3c-2.8,1-4.9,3.7-4.9,6.8c0,2.9,1.7,5.3,4.1,6.5c-0.3-0.4-0.5-0.9-0.7-1.7c-0.2-1.3-0.3-2.2-0.4-2.9
						c-0.2-1-0.2-1.2,0.2-1.7c0.2-0.2,0.4-0.3,0.5-0.4c0.2,0,0.4,0.1,0.4,0.1c0.4,0.5,1.2,1.3,1.3,1.5c0.2,0.2,0.2,0.5,0.1,0.9
						c-0.1,0.1-0.2,0.2-0.3,0.2c-0.3,0.1-0.6,0-0.7-0.1c-0.2-0.2-1.3-1.2-1.3-1.2c0,0.3,0.8,0.9,1.2,1.3c0.2,0.2,0.6,0.2,0.9,0.1
						c0.2-0.1,0.4-0.2,0.5-0.3c0.1-0.3,0.1-0.5,0.1-0.7c0.3,0.2,0.6,0.3,0.9,0.2c0.3-0.1,0.5-0.3,0.6-0.4c0,0.2,0.1,0.4,0.1,0.7
						c0.1,0.6,0.2,1,0.3,1.2c0,0.1,0.1,0.2,0.1,0.2c0,0,0,0,0,0c-0.2,0.2-0.4,0.6-0.6,1.1c-0.1,0.3-0.2,0.8-0.2,1.2
						c0,0.1,0,0.4,0,0.4c0,0,0-0.2,0.1-0.4c0-0.4,0.1-0.8,0.2-1.1c0.2-0.4,0.4-0.7,0.6-1c0,0,0,0,0,0c0.1-0.1,0-0.2,0-0.3
						c-0.1-0.2-0.2-0.6-0.3-1.2c-0.1-0.9-0.2-1.3,0.1-2c0.3-0.6,1-0.6,1.2-0.5c0.1,0,0.1,0.4,0.1,0.7c0,0.3,0,0.8,0.1,1.3
						c0.1,0.7,0.3,1.2,0.6,1.5c0.2,0.2,0.4,0.3,0.4,0.3c0,0-0.1-0.2-0.3-0.4c-0.2-0.3-0.4-0.8-0.5-1.4c-0.1-0.5-0.1-0.9-0.1-1.3
						c0-0.5,0-0.8-0.2-0.9c-0.1,0-0.3-0.1-0.5,0l1.4-4.5c0.2-0.8,0.5-1.2,1-1.1c0,0,0,0,0,0C27.2,496.3,26,496,24.7,496z M24,504.8
						c-0.4,0.1-0.8-0.2-1-0.4c-0.2-0.2-1.2-1.3-1.4-1.5c-0.3-0.3-0.1-0.9,0.6-1.2c0.2-0.1,0.5-0.1,0.6,0.1c0.8,0.9,1.6,1.9,1.6,2.1
						C24.6,504.4,24.4,504.7,24,504.8z M27.2,506.5L27.2,506.5C27.3,506.5,27.2,506.5,27.2,506.5C27.2,506.5,27.2,506.5,27.2,506.5z
						"/>
					<path d="M28.6,497.1c0.2,0.2,0.2,0.4,0.2,0.7l-1.2,5.4c-0.1,0.4-0.2,1.3-0.1,1.9c0.1,0.8,0.5,1.9,0.2,3.1
						c-0.1,0.6-0.3,1.3-0.6,1.9c2.9-1,5-3.7,5-6.8C32,500.6,30.7,498.4,28.6,497.1z"/>
				</g>
			</g>
		</g>
		<g id="Legal_Line">
			<g>
				<path d="M169.3,500.3h2.5v9.6h-2.5V500.3z"/>
				<path d="M173.4,503h2.2v1h0c0.4-0.7,1.2-1.2,2-1.2c0.9,0,1.7,0.3,2,1.1c0.6-0.7,1.2-1.1,2.2-1.1c2.2,0,2.5,1.7,2.5,3v4.2H182
					v-4.1c0-0.8-0.4-1.2-1-1.2c-1,0-1.1,0.8-1.1,1.9v3.4h-2.3v-4c0-0.8-0.2-1.3-0.9-1.3c-0.8,0-1.2,0.5-1.2,1.9v3.4h-2.3V503z"/>
				<path d="M185.7,505.1c0-0.9,0.5-1.5,1.1-1.9c0.6-0.3,1.4-0.5,2.2-0.5c1.7,0,3.3,0.4,3.3,2.3v3c0,0.6,0,1.2,0.3,1.8h-2.3
					c-0.1-0.2-0.1-0.4-0.1-0.7c-0.6,0.6-1.5,0.9-2.3,0.9c-1.3,0-2.4-0.7-2.4-2.1c0-2.3,2.5-2.1,4.1-2.4c0.4-0.1,0.6-0.2,0.6-0.6
					c0-0.5-0.6-0.7-1.1-0.7c-0.6,0-1,0.3-1.1,0.9H185.7z M188.7,508.7c1.1,0,1.5-0.6,1.4-2.1c-0.3,0.2-0.9,0.2-1.4,0.4
					c-0.5,0.1-0.9,0.3-0.9,0.9C187.7,508.5,188.2,508.7,188.7,508.7z"/>
				<path d="M200.5,509.1c0,1.1-0.2,3.3-3.5,3.3c-1.6,0-3.2-0.4-3.4-2.2h2.3c0.1,0.3,0.2,0.5,0.4,0.6c0.2,0.1,0.5,0.1,0.8,0.1
					c1.1,0,1.2-0.8,1.2-1.6v-0.7h0c-0.4,0.6-1.1,1-1.9,1c-2.1,0-3.1-1.5-3.1-3.5c0-1.9,1.1-3.4,3.1-3.4c0.8,0,1.5,0.4,1.9,1.1h0V503
					h2.2V509.1z M197,504.5c-1,0-1.3,0.9-1.3,1.7c0,0.8,0.4,1.6,1.3,1.6c1,0,1.4-0.8,1.4-1.6C198.4,505.4,198,504.5,197,504.5z"/>
				<path d="M203.9,507c0,1,0.6,1.6,1.6,1.6c0.6,0,1.1-0.3,1.3-0.8h2.1c-0.4,1.6-1.9,2.3-3.5,2.3c-2.3,0-3.8-1.4-3.8-3.7
					c0-2.1,1.7-3.7,3.8-3.7c2.5,0,3.7,1.9,3.6,4.2H203.9z M206.8,505.7c0-0.8-0.6-1.4-1.4-1.4c-0.8,0-1.3,0.6-1.5,1.4H206.8z"/>
				<path d="M212,507.6c0,0.3,0.1,0.6,0.4,0.8c0.2,0.2,0.5,0.2,0.8,0.2c0.4,0,1.1-0.2,1.1-0.7c0-0.5-0.7-0.6-1.1-0.7
					c-1.4-0.4-3.2-0.4-3.2-2.3c0-1.7,1.8-2.1,3.2-2.1c1.5,0,3.1,0.4,3.2,2.3h-2.1c0-0.3-0.1-0.5-0.3-0.6c-0.2-0.1-0.4-0.2-0.7-0.2
					c-0.4,0-1,0-1,0.5c0,0.7,1.5,0.8,2.6,1c1.4,0.3,1.8,1.3,1.8,1.9c0,1.9-1.8,2.5-3.3,2.5c-1.7,0-3.3-0.6-3.4-2.5H212z"/>
			</g>
			<g>
				<path d="M221.8,505.1c0-0.9,0.5-1.5,1.1-1.9c0.6-0.3,1.4-0.5,2.2-0.5c1.7,0,3.3,0.4,3.3,2.3v3c0,0.6,0,1.2,0.3,1.8h-2.3
					c-0.1-0.2-0.1-0.4-0.1-0.7c-0.6,0.6-1.5,0.9-2.3,0.9c-1.3,0-2.4-0.7-2.4-2.1c0-2.3,2.5-2.1,4.1-2.4c0.4-0.1,0.6-0.2,0.6-0.6
					c0-0.5-0.6-0.7-1.1-0.7c-0.6,0-1,0.3-1.1,0.9H221.8z M224.7,508.7c1.1,0,1.5-0.6,1.4-2.1c-0.3,0.2-0.9,0.2-1.4,0.4
					c-0.5,0.1-0.9,0.3-0.9,0.9C223.8,508.5,224.2,508.7,224.7,508.7z"/>
				<path d="M229.9,503h2.2v1.2h0c0.3-0.9,1.1-1.4,2.1-1.4c0.2,0,0.4,0,0.5,0.1v2.1c-0.3-0.1-0.6-0.1-0.9-0.1
					c-1.1,0-1.7,0.8-1.7,1.7v3.5h-2.3V503z"/>
				<path d="M237.3,507c0,1,0.6,1.6,1.6,1.6c0.6,0,1.1-0.3,1.3-0.8h2.1c-0.4,1.6-1.9,2.3-3.5,2.3c-2.3,0-3.8-1.4-3.8-3.7
					c0-2.1,1.7-3.7,3.8-3.7c2.5,0,3.7,1.9,3.6,4.2H237.3z M240.1,505.7c0-0.8-0.6-1.4-1.4-1.4c-0.8,0-1.3,0.6-1.5,1.4H240.1z"/>
			</g>
			<g>
				<path d="M247.7,503h2.2v0.8h0c0.4-0.7,1.1-1,1.9-1c2.2,0,3.1,1.9,3.1,3.8c0,1.8-1,3.5-2.9,3.5c-0.9,0-1.5-0.3-2-1h0v3.1h-2.3
					V503z M250,506.4c0,1.2,0.3,2,1.4,2c1,0,1.4-1.1,1.4-2c0-0.9-0.3-1.9-1.4-1.9C250.7,504.5,250,504.9,250,506.4z"/>
				<path d="M256.3,503h2.2v1.2h0c0.3-0.9,1.1-1.4,2.1-1.4c0.2,0,0.4,0,0.5,0.1v2.1c-0.3-0.1-0.6-0.1-0.9-0.1
					c-1.1,0-1.7,0.8-1.7,1.7v3.5h-2.3V503z"/>
				<path d="M265,502.8c2.2,0,3.7,1.6,3.7,3.7s-1.5,3.7-3.7,3.7c-2.2,0-3.7-1.6-3.7-3.7S262.8,502.8,265,502.8z M265,508.4
					c1.1,0,1.4-1,1.4-1.9c0-0.9-0.3-1.9-1.4-1.9c-1.1,0-1.4,1.1-1.4,1.9C263.6,507.3,264,508.4,265,508.4z"/>
				<path d="M269.9,503h2.2v0.8h0c0.4-0.7,1.1-1,1.9-1c2.2,0,3.1,1.9,3.1,3.8c0,1.8-1,3.5-2.9,3.5c-0.9,0-1.5-0.3-2-1h0v3.1h-2.3
					V503z M272.1,506.4c0,1.2,0.3,2,1.4,2c1,0,1.4-1.1,1.4-2c0-0.9-0.3-1.9-1.4-1.9C272.9,504.5,272.1,504.9,272.1,506.4z"/>
				<path d="M280.3,507c0,1,0.6,1.6,1.6,1.6c0.6,0,1.1-0.3,1.3-0.8h2.1c-0.4,1.6-1.9,2.3-3.5,2.3c-2.3,0-3.8-1.4-3.8-3.7
					c0-2.1,1.7-3.7,3.8-3.7c2.5,0,3.7,1.9,3.6,4.2H280.3z M283.1,505.7c0-0.8-0.6-1.4-1.4-1.4c-0.8,0-1.3,0.6-1.5,1.4H283.1z"/>
				<path d="M286.6,503h2.2v1.2h0c0.3-0.9,1.1-1.4,2.1-1.4c0.2,0,0.4,0,0.5,0.1v2.1c-0.3-0.1-0.6-0.1-0.9-0.1
					c-1.1,0-1.7,0.8-1.7,1.7v3.5h-2.3V503z"/>
				<path d="M296.5,504.4h-1.4v3.2c0,0.5,0.3,0.7,0.8,0.7c0.2,0,0.4,0,0.6,0v1.7c-0.4,0-0.8,0.1-1.2,0.1c-1.9,0-2.4-0.6-2.4-2.5
					v-3.1h-1.2V503h1.2v-2.1h2.3v2.1h1.4V504.4z"/>
				<path d="M301.3,510.6c-0.6,1.5-1.4,1.7-2.9,1.7h-1.1v-1.9h0.8c0.5,0,0.9-0.3,0.9-0.8c0-0.4-0.4-1.4-0.6-1.8l-1.8-4.8h2.4
					l1.3,4.5h0l1.3-4.5h2.3L301.3,510.6z"/>
			</g>
			<g>
				<path d="M312.2,502.8c2.2,0,3.7,1.6,3.7,3.7s-1.5,3.7-3.7,3.7c-2.2,0-3.7-1.6-3.7-3.7S310.1,502.8,312.2,502.8z M312.2,508.4
					c1.1,0,1.4-1,1.4-1.9c0-0.9-0.3-1.9-1.4-1.9c-1.1,0-1.4,1.1-1.4,1.9C310.9,507.3,311.2,508.4,312.2,508.4z"/>
				<path d="M317.6,504.4h-1.1V503h1.1c0-2,0.7-2.6,2.6-2.6c0.4,0,0.7,0,1.1,0v1.6c-0.2,0-0.4,0-0.6,0c-0.5,0-0.8,0.1-0.8,0.7v0.3
					h1.4v1.5h-1.4v5.5h-2.3V504.4z"/>
			</g>
			<g>
				<path d="M330.5,504.4h-1.4v3.2c0,0.5,0.3,0.7,0.8,0.7c0.2,0,0.4,0,0.6,0v1.7c-0.4,0-0.8,0.1-1.2,0.1c-1.9,0-2.4-0.6-2.4-2.5
					v-3.1h-1.2V503h1.2v-2.1h2.3v2.1h1.4V504.4z"/>
				<path d="M331.5,500.3h2.3v3.6h0c0.3-0.7,1.3-1.2,2.1-1.2c2.3,0,2.5,1.7,2.5,2.7v4.5h-2.3v-3.4c0-1,0.1-1.9-1.1-1.9
					c-0.9,0-1.2,0.7-1.2,1.5v3.8h-2.3V500.3z"/>
				<path d="M341.9,507c0,1,0.6,1.6,1.6,1.6c0.6,0,1.1-0.3,1.3-0.8h2.1c-0.4,1.6-1.9,2.3-3.5,2.3c-2.3,0-3.8-1.4-3.8-3.7
					c0-2.1,1.7-3.7,3.8-3.7c2.5,0,3.7,1.9,3.6,4.2H341.9z M344.8,505.7c0-0.8-0.6-1.4-1.4-1.4c-0.8,0-1.3,0.6-1.5,1.4H344.8z"/>
			</g>
			<g>
				<path d="M359.3,509.9h-2.2v-0.8h0c-0.4,0.7-1.1,1-1.9,1c-2.2,0-3.1-1.9-3.1-3.8c0-1.8,1-3.5,2.9-3.5c0.9,0,1.5,0.3,2,1h0v-3.4
					h2.3V509.9z M354.4,506.4c0,1,0.3,2,1.4,2c1.1,0,1.4-1.1,1.4-1.9c0-1-0.4-1.9-1.4-1.9C354.7,504.5,354.4,505.5,354.4,506.4z"/>
				<path d="M362.8,507c0,1,0.6,1.6,1.6,1.6c0.6,0,1.1-0.3,1.3-0.8h2.1c-0.4,1.6-1.9,2.3-3.5,2.3c-2.3,0-3.8-1.4-3.8-3.7
					c0-2.1,1.7-3.7,3.8-3.7c2.5,0,3.7,1.9,3.6,4.2H362.8z M365.7,505.7c0-0.8-0.6-1.4-1.4-1.4c-0.8,0-1.3,0.6-1.5,1.4H365.7z"/>
				<path d="M370.9,507.6c0,0.3,0.1,0.6,0.4,0.8c0.2,0.2,0.5,0.2,0.8,0.2c0.4,0,1.1-0.2,1.1-0.7c0-0.5-0.7-0.6-1.1-0.7
					c-1.4-0.4-3.2-0.4-3.2-2.3c0-1.7,1.8-2.1,3.2-2.1c1.5,0,3.1,0.4,3.2,2.3h-2.1c0-0.3-0.1-0.5-0.3-0.6c-0.2-0.1-0.4-0.2-0.7-0.2
					c-0.4,0-1,0-1,0.5c0,0.7,1.5,0.8,2.6,1c1.4,0.3,1.8,1.3,1.8,1.9c0,1.9-1.8,2.5-3.3,2.5c-1.7,0-3.3-0.6-3.4-2.5H370.9z"/>
				<path d="M378.9,502.1h-2.3v-1.7h2.3V502.1z M376.6,503h2.3v7h-2.3V503z"/>
				<path d="M387.3,509.1c0,1.1-0.2,3.3-3.5,3.3c-1.6,0-3.2-0.4-3.4-2.2h2.3c0.1,0.3,0.2,0.5,0.4,0.6c0.2,0.1,0.5,0.1,0.8,0.1
					c1.1,0,1.2-0.8,1.2-1.6v-0.7h0c-0.4,0.6-1.1,1-1.9,1c-2.1,0-3.1-1.5-3.1-3.5c0-1.9,1.1-3.4,3.1-3.4c0.8,0,1.5,0.4,1.9,1.1h0V503
					h2.2V509.1z M383.7,504.5c-1,0-1.3,0.9-1.3,1.7c0,0.8,0.4,1.6,1.3,1.6c1,0,1.4-0.8,1.4-1.6C385.1,505.4,384.7,504.5,383.7,504.5
					z"/>
				<path d="M388.7,503h2.2v1h0c0.4-0.7,1.4-1.2,2.2-1.2c2.3,0,2.5,1.7,2.5,2.7v4.5h-2.3v-3.4c0-1,0.1-1.9-1.1-1.9
					c-0.9,0-1.2,0.7-1.2,1.5v3.8h-2.3V503z"/>
				<path d="M399.1,507c0,1,0.6,1.6,1.6,1.6c0.6,0,1.1-0.3,1.3-0.8h2.1c-0.4,1.6-1.9,2.3-3.5,2.3c-2.3,0-3.8-1.4-3.8-3.7
					c0-2.1,1.7-3.7,3.8-3.7c2.5,0,3.7,1.9,3.6,4.2H399.1z M402,505.7c0-0.8-0.6-1.4-1.4-1.4c-0.8,0-1.3,0.6-1.5,1.4H402z"/>
				<path d="M405.5,503h2.2v1.2h0c0.3-0.9,1.1-1.4,2.1-1.4c0.2,0,0.4,0,0.5,0.1v2.1c-0.3-0.1-0.6-0.1-0.9-0.1
					c-1.1,0-1.7,0.8-1.7,1.7v3.5h-2.3V503z"/>
			</g>
			<path d="M410,507.4h2.5v2.5H410V507.4z"/>
			<g>
				<path d="M427.7,503.8c-0.1-1-0.9-1.5-1.9-1.5c-1.6,0-2.2,1.4-2.2,2.8c0,1.4,0.6,2.8,2.2,2.8c1.2,0,1.8-0.7,1.9-1.8h2.5
					c-0.1,2.5-1.9,3.9-4.4,3.9c-2.9,0-4.8-2.2-4.8-5c0-2.8,1.9-5,4.8-5c2.1,0,4.3,1.3,4.4,3.6H427.7z"/>
				<path d="M431.5,500.3h2.3v3.6h0c0.3-0.7,1.3-1.2,2.1-1.2c2.3,0,2.5,1.7,2.5,2.7v4.5h-2.3v-3.4c0-1,0.1-1.9-1.1-1.9
					c-0.9,0-1.2,0.7-1.2,1.5v3.8h-2.3V500.3z"/>
				<path d="M441.9,507c0,1,0.6,1.6,1.6,1.6c0.6,0,1.1-0.3,1.3-0.8h2.1c-0.4,1.6-1.9,2.3-3.5,2.3c-2.3,0-3.8-1.4-3.8-3.7
					c0-2.1,1.7-3.7,3.8-3.7c2.5,0,3.7,1.9,3.6,4.2H441.9z M444.7,505.7c0-0.8-0.6-1.4-1.4-1.4c-0.8,0-1.3,0.6-1.5,1.4H444.7z"/>
				<path d="M452.7,505.5c0-0.6-0.5-1-1.1-1c-1.3,0-1.5,1.1-1.5,2.1c0,0.9,0.4,1.8,1.4,1.8c0.8,0,1.2-0.5,1.3-1.2h2.2
					c-0.2,1.9-1.7,2.9-3.5,2.9c-2.1,0-3.7-1.4-3.7-3.6c0-2.2,1.4-3.8,3.7-3.8c1.7,0,3.3,0.9,3.4,2.8H452.7z"/>
				<path d="M456.1,500.3h2.3v4.9l2.1-2.3h2.6l-2.6,2.6l2.9,4.3h-2.8l-1.7-2.8l-0.6,0.6v2.2h-2.3V500.3z"/>
			</g>
			<g>
				<path d="M468.3,500.3h2.3v9.6h-2.3V500.3z"/>
				<path d="M474.6,502.1h-2.3v-1.7h2.3V502.1z M472.3,503h2.3v7h-2.3V503z"/>
				<path d="M480.8,505.5c0-0.6-0.5-1-1.1-1c-1.3,0-1.5,1.1-1.5,2.1c0,0.9,0.4,1.8,1.4,1.8c0.8,0,1.2-0.5,1.3-1.2h2.2
					c-0.2,1.9-1.7,2.9-3.5,2.9c-2.1,0-3.7-1.4-3.7-3.6c0-2.2,1.4-3.8,3.7-3.8c1.7,0,3.3,0.9,3.4,2.8H480.8z"/>
				<path d="M486.1,507c0,1,0.6,1.6,1.6,1.6c0.6,0,1.1-0.3,1.3-0.8h2.1c-0.4,1.6-1.9,2.3-3.5,2.3c-2.3,0-3.8-1.4-3.8-3.7
					c0-2.1,1.7-3.7,3.8-3.7c2.5,0,3.7,1.9,3.6,4.2H486.1z M489,505.7c0-0.8-0.6-1.4-1.4-1.4c-0.8,0-1.3,0.6-1.5,1.4H489z"/>
				<path d="M492.4,503h2.2v1h0c0.4-0.7,1.4-1.2,2.2-1.2c2.3,0,2.5,1.7,2.5,2.7v4.5H497v-3.4c0-1,0.1-1.9-1.1-1.9
					c-0.9,0-1.2,0.7-1.2,1.5v3.8h-2.3V503z"/>
				<path d="M502.6,507.6c0,0.3,0.1,0.6,0.4,0.8c0.2,0.2,0.5,0.2,0.8,0.2c0.4,0,1.1-0.2,1.1-0.7c0-0.5-0.7-0.6-1.1-0.7
					c-1.4-0.4-3.2-0.4-3.2-2.3c0-1.7,1.8-2.1,3.2-2.1c1.5,0,3.1,0.4,3.2,2.3h-2.1c0-0.3-0.1-0.5-0.3-0.6c-0.2-0.1-0.4-0.2-0.7-0.2
					c-0.4,0-1,0-1,0.5c0,0.7,1.5,0.8,2.6,1c1.4,0.3,1.8,1.3,1.8,1.9c0,1.9-1.8,2.5-3.3,2.5c-1.7,0-3.3-0.6-3.4-2.5H502.6z"/>
				<path d="M510.2,507c0,1,0.6,1.6,1.6,1.6c0.5,0,1.1-0.3,1.3-0.8h2.1c-0.4,1.6-1.9,2.3-3.5,2.3c-2.3,0-3.8-1.4-3.8-3.7
					c0-2.1,1.7-3.7,3.8-3.7c2.5,0,3.7,1.9,3.6,4.2H510.2z M513.1,505.7c0-0.8-0.6-1.4-1.4-1.4c-0.8,0-1.3,0.6-1.5,1.4H513.1z"/>
			</g>
			<g>
				<path d="M521.2,504.4h-1.1V503h1.1c0-2,0.7-2.6,2.6-2.6c0.4,0,0.7,0,1.1,0v1.6c-0.2,0-0.4,0-0.6,0c-0.5,0-0.8,0.1-0.8,0.7v0.3
					h1.4v1.5h-1.4v5.5h-2.3V504.4z"/>
				<path d="M529,502.8c2.2,0,3.7,1.6,3.7,3.7s-1.5,3.7-3.7,3.7s-3.7-1.6-3.7-3.7S526.9,502.8,529,502.8z M529,508.4
					c1.1,0,1.4-1,1.4-1.9c0-0.9-0.3-1.9-1.4-1.9c-1.1,0-1.4,1.1-1.4,1.9C527.6,507.3,528,508.4,529,508.4z"/>
				<path d="M534,503h2.2v1.2h0c0.3-0.9,1.1-1.4,2.1-1.4c0.2,0,0.4,0,0.5,0.1v2.1c-0.3-0.1-0.6-0.1-0.9-0.1c-1.1,0-1.7,0.8-1.7,1.7
					v3.5H534V503z"/>
			</g>
			<g>
				<path d="M543.8,503h2.2v0.8h0c0.4-0.7,1.1-1,1.9-1c2.2,0,3.1,1.9,3.1,3.8c0,1.8-1,3.5-2.9,3.5c-0.9,0-1.5-0.3-2-1h0v3.1h-2.3
					V503z M546,506.4c0,1.2,0.3,2,1.4,2c1,0,1.4-1.1,1.4-2c0-0.9-0.4-1.9-1.4-1.9C546.8,504.5,546,504.9,546,506.4z"/>
				<path d="M554.2,507c0,1,0.6,1.6,1.6,1.6c0.6,0,1.1-0.3,1.3-0.8h2.1c-0.4,1.6-1.9,2.3-3.5,2.3c-2.3,0-3.8-1.4-3.8-3.7
					c0-2.1,1.7-3.7,3.8-3.7c2.5,0,3.7,1.9,3.6,4.2H554.2z M557.1,505.7c0-0.8-0.6-1.4-1.4-1.4c-0.8,0-1.3,0.6-1.5,1.4H557.1z"/>
				<path d="M560.6,503h2.2v1.2h0c0.3-0.9,1.1-1.4,2.1-1.4c0.2,0,0.4,0,0.5,0.1v2.1c-0.3-0.1-0.6-0.1-0.9-0.1
					c-1.1,0-1.7,0.8-1.7,1.7v3.5h-2.3V503z"/>
				<path d="M566.2,503h2.2v1h0c0.4-0.7,1.2-1.2,2-1.2c0.9,0,1.7,0.3,2,1.1c0.6-0.7,1.2-1.1,2.2-1.1c2.2,0,2.5,1.7,2.5,3v4.2h-2.3
					v-4.1c0-0.8-0.4-1.2-1-1.2c-1,0-1.1,0.8-1.1,1.9v3.4h-2.3v-4c0-0.8-0.2-1.3-0.9-1.3c-0.8,0-1.2,0.5-1.2,1.9v3.4h-2.3V503z"/>
				<path d="M581,502.1h-2.3v-1.7h2.3V502.1z M578.7,503h2.3v7h-2.3V503z"/>
				<path d="M586.8,504.4h-1.4v3.2c0,0.5,0.3,0.7,0.8,0.7c0.2,0,0.4,0,0.6,0v1.7c-0.4,0-0.8,0.1-1.2,0.1c-1.9,0-2.4-0.6-2.4-2.5
					v-3.1H582V503h1.2v-2.1h2.3v2.1h1.4V504.4z"/>
				<path d="M592,504.4h-1.4v3.2c0,0.5,0.3,0.7,0.8,0.7c0.2,0,0.4,0,0.6,0v1.7c-0.4,0-0.8,0.1-1.2,0.1c-1.9,0-2.4-0.6-2.4-2.5v-3.1
					h-1.2V503h1.2v-2.1h2.3v2.1h1.4V504.4z"/>
				<path d="M595,507c0,1,0.6,1.6,1.6,1.6c0.6,0,1.1-0.3,1.3-0.8h2.1c-0.4,1.6-1.9,2.3-3.5,2.3c-2.3,0-3.8-1.4-3.8-3.7
					c0-2.1,1.7-3.7,3.8-3.7c2.5,0,3.7,1.9,3.6,4.2H595z M597.8,505.7c0-0.8-0.6-1.4-1.4-1.4c-0.8,0-1.3,0.6-1.5,1.4H597.8z"/>
				<path d="M608.2,509.9H606v-0.8h0c-0.4,0.7-1.1,1-1.9,1c-2.2,0-3.1-1.9-3.1-3.8c0-1.8,1-3.5,2.9-3.5c0.9,0,1.5,0.3,2,1h0v-3.4
					h2.3V509.9z M603.2,506.4c0,1,0.3,2,1.4,2c1.1,0,1.4-1.1,1.4-1.9c0-1-0.4-1.9-1.4-1.9C603.6,504.5,603.2,505.5,603.2,506.4z"/>
			</g>
			<g>
				<path d="M620.9,509.9h-2.2v-1h0c-0.4,0.7-1.3,1.2-2.1,1.2c-2,0-2.6-1.2-2.6-3V503h2.3v4c0,0.9,0.4,1.2,1.1,1.2
					c0.5,0,1.2-0.3,1.2-1.6V503h2.3V509.9z"/>
				<path d="M624.2,507.6c0,0.3,0.1,0.6,0.4,0.8c0.2,0.2,0.5,0.2,0.8,0.2c0.4,0,1.1-0.2,1.1-0.7c0-0.5-0.7-0.6-1.1-0.7
					c-1.4-0.4-3.2-0.4-3.2-2.3c0-1.7,1.8-2.1,3.2-2.1c1.5,0,3.1,0.4,3.2,2.3h-2.1c0-0.3-0.1-0.5-0.3-0.6c-0.2-0.1-0.4-0.2-0.7-0.2
					c-0.4,0-1,0-1,0.5c0,0.7,1.5,0.8,2.6,1c1.4,0.3,1.8,1.3,1.8,1.9c0,1.9-1.8,2.5-3.3,2.5c-1.7,0-3.3-0.6-3.4-2.5H624.2z"/>
				<path d="M631.8,507c0,1,0.6,1.6,1.6,1.6c0.6,0,1.1-0.3,1.3-0.8h2.1c-0.4,1.6-1.9,2.3-3.5,2.3c-2.3,0-3.8-1.4-3.8-3.7
					c0-2.1,1.7-3.7,3.8-3.7c2.5,0,3.7,1.9,3.6,4.2H631.8z M634.7,505.7c0-0.8-0.6-1.4-1.4-1.4c-0.8,0-1.3,0.6-1.5,1.4H634.7z"/>
			</g>
			<path d="M638.2,507.4h2.5v2.5h-2.5V507.4z"/>
		</g>
	</g>
</g>
<g id="Vector_Graphics">
	<g>
		<g>
			<g>
				<path class="st4" d="M277.1,29c-43.6-11.8-11.2,38.1,31.4,55.6c42.7,17.5,53.1,56.2,27.1,60.8c-26,4.6,40.5,69.2,94.9,110.5
					c54.4,41.3,107.3,82.8,52.5,79.2"/>
				<path class="st4" d="M271.6,34.2C226.9,24,260,73.4,303.7,89.4c43.7,16,54.3,54.9,27.6,60.7c-26.7,5.8,41.4,68.7,97,108.5
					c55.7,39.7,109.8,79.7,53.6,78.3"/>
				<path class="st4" d="M266.3,39.4c-45.7-8.6-12,40.4,32.7,54.9c44.7,14.5,55.5,53.6,28.1,60.6c-27.4,7,42.2,68.2,99.1,106.3
					c56.9,38.1,112.2,76.6,54.8,77.5"/>
				<path class="st4" d="M261.1,44.7c-46.7-6.9-12.3,41.5,33.4,54.5c45.7,13,56.7,52.3,28.7,60.5c-28,8.2,43.1,67.7,101.1,104.2
					c58.1,36.5,114.6,73.4,55.8,76.6"/>
				<path class="st4" d="M256.1,50c-47.6-5.2-12.5,42.7,34,54.1c46.6,11.4,57.7,51,29.2,60.4c-28.5,9.4,43.9,67.2,103.1,102.1
					c59.2,34.9,116.8,70.3,56.9,75.8"/>
				<path class="st4" d="M251.3,55.3c-48.4-3.5-12.8,43.8,34.6,53.7c47.4,9.9,58.8,49.7,29.7,60.3c-29,10.6,44.7,66.6,104.9,99.9
					c60.3,33.3,118.9,67.1,57.9,74.9"/>
				<path class="st4" d="M246.6,60.6c-49.3-1.8-13,45,35.2,53.4c48.2,8.3,59.8,48.4,30.3,60.2c-29.5,11.8,45.5,66.1,106.8,97.8
					c61.3,31.7,121,63.9,59,74"/>
				<path class="st4" d="M242,66c-50-0.1-13.1,46.2,35.9,53c49,6.8,60.8,47.1,30.8,60.1c-30,13.1,46.2,65.6,108.5,95.6
					c62.3,30,122.9,60.7,60,73.2"/>
				<path class="st4" d="M237.6,71.3c-50.7,1.6-13.2,47.4,36.4,52.6c49.7,5.2,61.7,45.8,31.4,60.1c-30.4,14.3,47,65.1,110.2,93.4
					c63.2,28.4,124.7,57.4,60.9,72.3"/>
				<path class="st4" d="M233.4,76.7c-51.4,3.3-13.3,48.6,37,52.2c50.3,3.6,62.6,44.4,31.9,60c-30.7,15.6,47.7,64.5,111.8,91.2
					c64.1,26.7,126.5,54.2,61.9,71.4"/>
				<path class="st4" d="M229.3,82c-52,5-13.3,49.8,37.6,51.9c50.9,2.1,63.5,43.1,32.4,59.9c-31.1,16.8,48.5,64,113.4,89
					c64.9,25,128.1,50.9,62.8,70.5"/>
				<path class="st4" d="M225.3,87.4c-52.5,6.8-13.3,51,38.2,51.5c51.5,0.5,64.3,41.8,33,59.8c-31.3,18.1,49.2,63.5,114.9,86.8
					c65.7,23.4,129.7,47.6,63.7,69.6"/>
				<path class="st4" d="M221.5,92.7c-53,8.5-13.2,52.2,38.8,51.1c52-1.1,65.1,40.4,33.5,59.7c-31.6,19.3,49.9,62.9,116.4,84.6
					c66.5,21.7,131.1,44.4,64.6,68.8"/>
				<path class="st4" d="M217.9,98c-53.5,10.2-13.2,53.5,39.3,50.7c52.5-2.7,65.9,39.1,34.1,59.6c-31.8,20.6,50.6,62.4,117.8,82.5
					c67.2,20,132.5,41.1,65.4,67.9"/>
				<path class="st4" d="M214.4,103.4c-53.9,11.9-13,54.6,39.9,50.4c52.9-4.3,66.6,37.8,34.6,59.6c-32,21.8,51.3,61.9,119.1,80.3
					c67.8,18.4,133.8,37.9,66.3,67"/>
				<path class="st4" d="M211,108.7c-54.2,13.7-12.9,55.9,40.4,50c53.3-5.9,67.3,36.4,35.1,59.5c-32.1,23,52,61.4,120.4,78.1
					c68.4,16.7,135,34.6,67.1,66.1"/>
				<path class="st4" d="M207.7,113.9c-54.6,15.4-12.7,57,40.9,49.6c53.6-7.4,67.9,35.1,35.7,59.4c-32.2,24.3,52.7,60.8,121.7,75.9
					c69,15.1,136.1,31.4,67.9,65.3"/>
				<path class="st4" d="M204.6,119.2c-54.8,17.1-12.5,58.2,41.4,49.3c53.9-9,68.5,33.8,36.2,59.3c-32.3,25.5,53.3,60.3,122.8,73.7
					c69.5,13.4,137.2,28.2,68.7,64.4"/>
				<path class="st4" d="M201.6,124.4c-55,18.8-12.2,59.4,42,48.9c54.2-10.5,69.1,32.5,36.8,59.2c-32.4,26.7,54,59.8,124,71.5
					c70,11.8,138.1,24.9,69.4,63.5"/>
				<path class="st4" d="M198.7,129.6c-55.2,20.5-12,60.6,42.5,48.5c54.4-12.1,69.7,31.1,37.3,59.1c-32.4,28,54.6,59.3,125,69.4
					c70.4,10.1,139,21.7,70.2,62.6"/>
				<path class="st4" d="M196,134.7c-55.4,22.2-11.6,61.8,43,48.1c54.6-13.6,70.2,29.8,37.8,59c-32.4,29.2,55.2,58.7,126.1,67.2
					c70.8,8.5,139.8,18.6,70.9,61.8"/>
				<path class="st4" d="M193.3,139.9c-55.5,23.8-11.3,62.9,43.5,47.8c54.8-15.2,70.7,28.6,38.4,58.9c-32.3,30.4,55.9,58.2,127,65.1
					c71.2,6.9,140.5,15.4,71.6,60.9"/>
				<path class="st4" d="M190.8,144.9c-55.5,25.5-10.9,64.1,44,47.4c54.9-16.7,71.2,27.3,38.9,58.8c-32.3,31.6,56.5,57.7,128,63
					c71.5,5.3,141.2,12.3,72.3,60"/>
				<path class="st4" d="M188.4,150c-55.6,27.1-10.5,65.2,44.4,47c55-18.2,71.6,26,39.5,58.7c-32.2,32.8,57.1,57.2,128.9,60.9
					c71.8,3.7,141.8,9.2,73,59.2"/>
				<path class="st4" d="M186.1,155c-55.6,28.7-10.1,66.3,44.9,46.6c55-19.7,72,24.7,40,58.6c-32,33.9,57.6,56.7,129.7,58.8
					c72.1,2.1,142.3,6.1,73.6,58.3"/>
				<path class="st4" d="M184,159.9c-55.5,30.4-9.7,67.4,45.4,46.3c55-21.2,72.4,23.5,40.5,58.5c-31.9,35.1,58.2,56.1,130.5,56.7
					c72.3,0.6,142.8,3,74.2,57.5"/>
				<path class="st4" d="M181.9,164.8c-55.4,31.9-9.2,68.5,45.8,45.9c55-22.6,72.8,22.2,41.1,58.4c-31.7,36.2,58.8,55.6,131.2,54.6
					c72.5-1,143.2,0,74.9,56.7"/>
				<path class="st4" d="M179.9,169.6c-55.3,33.5-8.7,69.6,46.3,45.5c55-24.1,73.1,21,41.6,58.3c-31.5,37.4,59.3,55.1,132,52.6
					c72.6-2.5,143.5-3,75.4,55.8"/>
				<path class="st4" d="M178.1,174.4c-55.2,35.1-8.2,70.7,46.7,45.2c54.9-25.5,73.4,19.7,42.1,58.2
					c-31.3,38.5,59.9,54.6,132.6,50.6c72.8-4,143.7-6,76,55"/>
				<path class="st4" d="M176.3,179.2c-55,36.6-7.7,71.7,47.2,44.8c54.8-26.9,73.7,18.5,42.7,58.1c-31,39.6,60.4,54.1,133.3,48.6
					c72.9-5.5,144-8.9,76.6,54.2"/>
				<path class="st4" d="M174.7,183.9c-54.8,38.1-7.1,72.8,47.6,44.5c54.7-28.3,74,17.3,43.2,58c-30.8,40.7,60.9,53.6,133.9,46.6
					c72.9-7,144.1-11.8,77.1,53.4"/>
				<path class="st4" d="M173.1,188.5c-54.6,39.6-6.5,73.8,48,44.1c54.5-29.7,74.2,16.1,43.7,57.9c-30.5,41.8,61.4,53.1,134.4,44.6
					c73-8.5,144.2-14.7,77.7,52.5"/>
				<path class="st4" d="M171.6,193c-54.3,41.1-5.9,74.8,48.4,43.7c54.4-31,74.4,15,44.2,57.8c-30.2,42.8,61.9,52.6,134.9,42.7
					c73-9.9,144.3-17.5,78.2,51.7"/>
				<path class="st4" d="M170.2,197.5c-54,42.6-5.3,75.8,48.8,43.4c54.2-32.4,74.6,13.8,44.8,57.7c-29.9,43.9,62.4,52.1,135.4,40.8
					c73-11.3,144.3-20.3,78.7,50.9"/>
				<path class="st4" d="M168.9,202c-53.7,44-4.7,76.7,49.2,43c53.9-33.7,74.8,12.7,45.3,57.6c-29.5,44.9,62.9,51.6,135.9,38.9
					c73-12.7,144.2-23.1,79.2,50.2"/>
				<path class="st4" d="M167.6,206.4c-53.4,45.4-4.1,77.7,49.6,42.7c53.7-35,75,11.5,45.8,57.4c-29.2,45.9,63.4,51.1,136.3,37
					c72.9-14.1,144.1-25.8,79.7,49.4"/>
				<path class="st4" d="M166.5,210.7c-53.1,46.8-3.4,78.6,50,42.3c53.4-36.3,75.1,10.4,46.3,57.3c-28.8,46.9,63.8,50.6,136.7,35.2
					c72.8-15.5,144-28.4,80.1,48.6"/>
				<path class="st4" d="M165.4,214.9c-52.7,48.2-2.8,79.5,50.4,42c53.2-37.5,75.2,9.3,46.8,57.2c-28.4,47.9,64.3,50.2,137,33.3
					c72.7-16.8,143.8-31.1,80.6,47.8"/>
				<path class="st4" d="M164.4,219.1c-52.3,49.5-2.1,80.4,50.7,41.6c52.9-38.7,75.3,8.3,47.3,57.1c-28,48.8,64.7,49.7,137.4,31.6
					c72.6-18.1,143.6-33.7,81,47.1"/>
				<path class="st4" d="M163.5,223.2c-51.9,50.8-1.4,81.3,51.1,41.3c52.5-40,75.4,7.2,47.8,56.9c-27.6,49.8,65.2,49.2,137.7,29.8
					c72.5-19.4,143.4-36.2,81.4,46.3"/>
				<path class="st4" d="M162.6,227.3c-51.5,52.1-0.7,82.1,51.5,41c52.2-41.1,75.5,6.1,48.3,56.8c-27.2,50.7,65.6,48.7,137.9,28
					c72.3-20.7,143.1-38.7,81.8,45.6"/>
				<path class="st4" d="M161.8,231.3c-51,53.4-0.1,82.9,51.8,40.6c51.9-42.3,75.5,5.1,48.7,56.7c-26.8,51.6,66,48.3,138.2,26.3
					c72.2-22,142.8-41.2,82.2,44.9"/>
				<path class="st4" d="M161.1,235.2c-50.6,54.6,0.7,83.8,52.2,40.3c51.5-43.5,75.6,4.1,49.2,56.5c-26.4,52.5,66.4,47.8,138.4,24.6
					c72-23.2,142.4-43.6,82.6,44.2"/>
				<path class="st4" d="M160.4,239c-50.1,55.8,1.4,84.6,52.5,40c51.1-44.6,75.6,3.1,49.7,56.4c-25.9,53.3,66.8,47.4,138.6,23
					c71.8-24.4,142.1-46,83,43.5"/>
				<path class="st4" d="M159.8,242.8c-49.6,57,2.1,85.3,52.8,39.6c50.8-45.7,75.6,2.1,50.2,56.3c-25.5,54.2,67.2,46.9,138.8,21.3
					c71.6-25.6,141.6-48.3,83.3,42.7"/>
				<path class="st4" d="M159.2,246.5c-49.1,58.2,2.8,86.1,53.2,39.3c50.4-46.8,75.6,1.1,50.6,56.1c-25,55,67.6,46.5,138.9,19.7
					c71.3-26.8,141.2-50.6,83.7,42.1"/>
				<path class="st4" d="M158.7,250.1c-48.7,59.3,3.5,86.8,53.5,39c50-47.8,75.6,0.2,51.1,56c-24.5,55.8,68,46,139.1,18.1
					c71.1-27.9,140.8-52.8,84,41.4"/>
				<path class="st4" d="M158.2,253.7c-48.1,60.5,4.2,87.5,53.8,38.7c49.6-48.9,75.6-0.7,51.6,55.9c-24.1,56.6,68.4,45.6,139.2,16.6
					c70.8-29,140.3-55,84.3,40.7"/>
				<path class="st4" d="M157.8,257.1c-47.6,61.6,5,88.2,54.1,38.4c49.1-49.9,75.6-1.6,52,55.7c-23.6,57.4,68.7,45.2,139.3,15.1
					c70.6-30.1,139.8-57.2,84.6,40"/>
				<path class="st4" d="M157.5,260.6c-47.1,62.6,5.7,88.9,54.4,38.1c48.7-50.9,75.5-2.5,52.4,55.6c-23.1,58.1,69.1,44.8,139.4,13.6
					c70.3-31.2,139.3-59.3,84.9,39.4"/>
				<path class="st4" d="M157.1,263.9c-46.6,63.7,6.4,89.6,54.7,37.8c48.3-51.8,75.5-3.4,52.9,55.5c-22.6,58.9,69.4,44.4,139.4,12.1
					c70-32.3,138.7-61.3,85.2,38.8"/>
				<path class="st4" d="M156.9,267.2c-46,64.7,7.1,90.2,55,37.5c47.8-52.8,75.4-4.3,53.3,55.3c-22.1,59.6,69.7,43.9,139.5,10.7
					c69.7-33.3,138.2-63.3,85.5,38.1"/>
				<path class="st4" d="M156.6,270.4c-45.5,65.7,7.8,90.8,55.2,37.2c47.4-53.7,75.4-5.1,53.7,55.2c-21.7,60.3,70,43.5,139.5,9.3
					c69.4-34.3,137.6-65.3,85.8,37.5"/>
				<path class="st4" d="M156.4,273.5c-45,66.6,8.6,91.5,55.5,36.9c46.9-54.6,75.3-5.9,54.1,55c-21.2,61,70.4,43.1,139.5,7.9
					c69.1-35.3,137-67.2,86,36.9"/>
				<path class="st4" d="M156.3,276.6c-44.4,67.6,9.3,92,55.8,36.6c46.5-55.5,75.2-6.7,54.5,54.9c-20.7,61.6,70.7,42.8,139.5,6.5
					c68.8-36.2,136.5-69.1,86.3,36.3"/>
				<path class="st4" d="M156.1,279.5c-43.9,68.5,10,92.6,56,36.3c46-56.3,75.1-7.5,54.9,54.8c-20.2,62.3,71,42.4,139.5,5.2
					c68.5-37.2,135.9-70.9,86.5,35.7"/>
				<path class="st4" d="M156,282.5c-43.3,69.4,10.7,93.2,56.3,36c45.6-57.2,75.1-8.3,55.3,54.6c-19.7,62.9,71.3,42,139.5,3.9
					c68.2-38.1,135.3-72.7,86.8,35.2"/>
				<path class="st4" d="M155.9,285.3c-42.8,70.3,11.4,93.7,56.5,35.7c45.1-58,75-9,55.7,54.5c-19.2,63.5,71.5,41.6,139.4,2.7
					c67.9-38.9,134.7-74.5,87,34.6"/>
				<path class="st4" d="M155.9,288.1c-42.3,71.1,12.1,94.2,56.8,35.5c44.7-58.7,74.9-9.8,56.1,54.3c-18.7,64.1,71.8,41.3,139.4,1.4
					c67.6-39.8,134-76.2,87.2,34"/>
				<path class="st4" d="M155.9,290.8c-41.7,72,12.8,94.7,57,35.2c44.2-59.5,74.7-10.5,56.5,54.2c-18.3,64.7,72.1,40.9,139.3,0.2
					c67.3-40.7,133.4-77.8,87.4,33.5"/>
				<path class="st4" d="M155.9,293.4c-41.2,72.8,13.4,95.2,57.2,35c43.8-60.3,74.6-11.2,56.8,54.1c-17.8,65.2,72.4,40.5,139.3-0.9
					c66.9-41.5,132.8-79.4,87.6,33"/>
				<path class="st4" d="M155.9,295.9c-40.6,73.5,14.1,95.7,57.5,34.7c43.4-61,74.5-11.8,57.2,53.9c-17.3,65.8,72.6,40.2,139.2-2.1
					c66.6-42.3,132.2-81,87.8,32.5"/>
				<path class="st4" d="M155.9,298.4c-40.1,74.3,14.8,96.1,57.7,34.5c42.9-61.7,74.4-12.5,57.5,53.8
					c-16.9,66.3,72.9,39.9,139.1-3.2c66.3-43,131.6-82.5,88,32"/>
				<path class="st4" d="M156,300.8c-39.6,75,15.4,96.6,57.9,34.2c42.5-62.4,74.3-13.1,57.9,53.7c-16.4,66.8,73.1,39.5,139.1-4.3
					c66-43.8,130.9-84,88.2,31.5"/>
				<path class="st4" d="M156.1,303.2c-39.1,75.7,16,97,58.1,34c42-63,74.2-13.8,58.2,53.5c-15.9,67.3,73.3,39.2,139-5.3
					c65.6-44.5,130.3-85.4,88.3,31"/>
				<path class="st4" d="M156.2,305.5c-38.6,76.4,16.7,97.4,58.3,33.7c41.6-63.6,74-14.4,58.5,53.4c-15.5,67.8,73.6,38.9,138.9-6.3
					s129.7-86.8,88.5,30.5"/>
				<path class="st4" d="M156.3,307.7c-38.1,77.1,17.3,97.8,58.5,33.5c41.2-64.3,73.9-14.9,58.9,53.3
					c-15.1,68.2,73.8,38.6,138.8-7.3c65-45.9,129.1-88.1,88.7,30.1"/>
				<path class="st4" d="M156.4,309.8c-37.6,77.7,17.9,98.1,58.7,33.3c40.8-64.9,73.8-15.5,59.2,53.1c-14.6,68.7,74,38.3,138.7-8.3
					c64.7-46.6,128.5-89.4,88.8,29.6"/>
				<path class="st4" d="M156.6,311.9c-37.1,78.3,18.5,98.5,58.8,33.1c40.4-65.4,73.7-16.1,59.5,53c-14.2,69.1,74.2,38,138.6-9.2
					c64.4-47.2,127.9-90.7,89,29.2"/>
				<path class="st4" d="M156.7,313.9c-36.6,78.9,19.1,98.8,59,32.9c40-66,73.6-16.6,59.8,52.9c-13.8,69.5,74.4,37.7,138.5-10.1
					c64.1-47.8,127.3-91.9,89.1,28.8"/>
				<path class="st4" d="M156.8,315.8c-36.1,79.5,19.6,99.2,59.2,32.7c39.6-66.5,73.4-17.1,60,52.8c-13.4,69.9,74.6,37.4,138.3-11
					c63.8-48.4,126.7-93.1,89.2,28.4"/>
				<path class="st4" d="M157,317.7c-35.7,80,20.2,99.5,59.3,32.5c39.2-67,73.3-17.6,60.3,52.7c-13,70.3,74.7,37.2,138.2-11.8
					c63.5-49,126.2-94.2,89.4,28"/>
				<path class="st4" d="M157.2,319.5c-35.2,80.6,20.7,99.8,59.5,32.3c38.8-67.5,73.2-18.1,60.6,52.5
					c-12.6,70.6,74.9,36.9,138.1-12.6c63.2-49.6,125.6-95.3,89.5,27.6"/>
				<path class="st4" d="M157.3,321.2c-34.8,81.1,21.2,100.1,59.6,32.1c38.4-68,73.1-18.5,60.8,52.4c-12.2,71,75.1,36.7,138-13.4
					c62.9-50.1,125.1-96.3,89.6,27.3"/>
				<path class="st4" d="M157.5,322.9c-34.4,81.6,21.7,100.4,59.8,31.9c38.1-68.5,72.9-19,61.1,52.3
					c-11.9,71.3,75.3,36.4,137.9-14.2c62.6-50.6,124.5-97.4,89.7,26.9"/>
				<path class="st4" d="M157.7,324.5c-34,82,22.2,100.6,59.9,31.7c37.7-68.9,72.8-19.4,61.3,52.2c-11.5,71.6,75.4,36.2,137.8-14.9
					c62.4-51.1,124-98.3,89.8,26.6"/>
				<path class="st4" d="M157.9,326c-33.6,82.5,22.7,100.9,60,31.5c37.4-69.3,72.7-19.8,61.5,52.1c-11.2,71.9,75.6,36,137.7-15.6
					c62.1-51.6,123.5-99.2,89.9,26.3"/>
				<path class="st4" d="M158,327.5c-33.2,82.9,23.1,101.1,60.2,31.4c37-69.7,72.6-20.2,61.8,52c-10.8,72.2,75.7,35.8,137.6-16.3
					c61.9-52,123-100.1,90,25.9"/>
				<path class="st4" d="M158.2,328.8c-32.8,83.3,23.6,101.3,60.3,31.2c36.7-70.1,72.5-20.6,62,51.9
					c-10.5,72.5,75.8,35.5,137.4-16.9c61.6-52.5,122.5-101,90.1,25.6"/>
				<path class="st4" d="M158.4,330.2c-32.4,83.7,24,101.5,60.4,31.1c36.4-70.5,72.4-20.9,62.2,51.8c-10.2,72.8,76,35.3,137.3-17.5
					c61.4-52.9,122.1-101.8,90.2,25.4"/>
				<path class="st4" d="M158.6,331.5c-32.1,84.1,24.4,101.8,60.5,30.9c36.1-70.8,72.3-21.3,62.4,51.7c-9.9,73,76.1,35.2,137.2-18.1
					c61.1-53.3,121.6-102.5,90.2,25.1"/>
				<path class="st4" d="M158.7,332.7c-31.8,84.4,24.8,101.9,60.6,30.8c35.9-71.1,72.2-21.6,62.6,51.7c-9.6,73.3,76.2,35,137.1-18.6
					c60.9-53.6,121.2-103.3,90.3,24.8"/>
				<path class="st4" d="M158.9,333.8c-31.4,84.7,25.1,102.1,60.7,30.7c35.6-71.4,72.1-21.9,62.7,51.6c-9.4,73.5,76.3,34.8,137-19.2
					c60.7-54,120.8-104,90.4,24.6"/>
				<path class="st4" d="M159.1,334.9c-31.1,85.1,25.5,102.3,60.8,30.6s72-22.2,62.9,51.5c-9.1,73.7,76.4,34.6,136.9-19.7
					c60.5-54.3,120.4-104.6,90.5,24.3"/>
				<path class="st4" d="M159.2,335.9c-30.9,85.4,25.8,102.5,60.9,30.4c35.1-72,71.9-22.5,63.1,51.4c-8.9,73.9,76.5,34.5,136.8-20.1
					c60.3-54.6,120.1-105.2,90.5,24.1"/>
				<path class="st4" d="M159.4,336.9c-30.6,85.6,26.1,102.6,61,30.3c34.9-72.3,71.8-22.7,63.2,51.4c-8.6,74.1,76.6,34.3,136.8-20.6
					c60.1-54.9,119.7-105.8,90.6,23.9"/>
				<path class="st4" d="M159.5,337.7c-30.3,85.9,26.4,102.7,61.1,30.2c34.6-72.5,71.8-23,63.3,51.3c-8.4,74.3,76.7,34.2,136.7-21
					c60-55.2,119.4-106.3,90.6,23.7"/>
				<path class="st4" d="M159.6,338.6c-30.1,86.1,26.7,102.9,61.1,30.1c34.4-72.7,71.7-23.2,63.5,51.2
					C276,494.3,361,454,420.9,398.6c59.8-55.4,119.1-106.8,90.7,23.5"/>
				<path class="st4" d="M159.8,339.3c-29.9,86.3,27,103,61.2,30c34.3-72.9,71.6-23.4,63.6,51.2c-8,74.6,76.9,34,136.5-21.7
					c59.7-55.7,118.8-107.3,90.7,23.4"/>
				<path class="st4" d="M159.9,340c-29.7,86.5,27.2,103.1,61.3,30c34.1-73.1,71.5-23.6,63.7,51.1c-7.9,74.7,76.9,33.9,136.5-22
					c59.5-55.9,118.5-107.7,90.8,23.2"/>
				<path class="st4" d="M160,340.7c-29.5,86.7,27.4,103.2,61.3,29.9c33.9-73.3,71.5-23.8,63.8,51.1c-7.7,74.8,77,33.8,136.4-22.3
					c59.4-56.1,118.3-108.1,90.8,23.1"/>
				<path class="st4" d="M160.1,341.3c-29.3,86.9,27.6,103.3,61.4,29.8c33.8-73.5,71.4-23.9,63.9,51c-7.6,74.9,77,33.7,136.3-22.6
					c59.3-56.3,118.1-108.4,90.8,22.9"/>
				<path class="st4" d="M160.2,341.8c-29.2,87,27.8,103.4,61.4,29.8c33.7-73.6,71.4-24,64,51c-7.4,75,77.1,33.6,136.3-22.8
					c59.2-56.4,117.9-108.8,90.9,22.8"/>
				<path class="st4" d="M160.3,342.2c-29,87.2,27.9,103.4,61.5,29.7c33.5-73.7,71.3-24.2,64,51c-7.3,75.1,77.1,33.5,136.2-23
					c59.1-56.6,117.7-109,90.9,22.7"/>
				<path class="st4" d="M160.3,342.6c-28.9,87.3,28.1,103.5,61.5,29.7c33.4-73.8,71.3-24.3,64.1,50.9
					c-7.2,75.2,77.2,33.5,136.2-23.2s117.6-109.3,90.9,22.6"/>
				<path class="st4" d="M160.4,343c-28.8,87.4,28.2,103.5,61.5,29.6c33.4-73.9,71.3-24.4,64.2,50.9c-7.1,75.3,77.2,33.4,136.2-23.4
					c59-56.8,117.4-109.5,90.9,22.6"/>
				<path class="st4" d="M160.5,343.2c-28.7,87.4,28.3,103.6,61.5,29.6c33.3-74,71.3-24.4,64.2,50.9c-7.1,75.3,77.2,33.4,136.1-23.5
					c58.9-56.9,117.3-109.6,91,22.5"/>
				<path class="st4" d="M160.5,343.4C131.8,431,188.8,447,222.1,373c33.2-74,71.2-24.5,64.2,50.9c-7,75.4,77.3,33.3,136.1-23.6
					c58.9-56.9,117.2-109.8,91,22.5"/>
				<path class="st4" d="M160.5,343.6c-28.6,87.6,28.4,103.6,61.6,29.5c33.2-74.1,71.2-24.5,64.3,50.9c-7,75.4,77.3,33.3,136.1-23.7
					c58.8-57,117.2-109.8,91,22.4"/>
				<path class="st4" d="M160.5,343.7c-28.6,87.6,28.4,103.6,61.6,29.5c33.2-74.1,71.2-24.6,64.3,50.8
					c-6.9,75.4,77.3,33.3,136.1-23.7c58.8-57,117.1-109.9,91,22.4"/>
				<path class="st4" d="M160.5,343.7c-28.6,87.6,28.4,103.6,61.6,29.5c33.2-74.1,71.2-24.6,64.3,50.8
					c-6.9,75.4,77.3,33.3,136.1-23.7c58.8-57,117.1-109.9,91,22.4"/>
			</g>
		</g>
		<g>
			<g>
				<path class="st5" d="M510.9,101.2c3.4,109.3-61.8,22.8-70.1,189.1c-8.3,166.3-70.8,118.6-70.8,118.6"/>
				<path class="st5" d="M510.9,101.2c3.4,109.3-61.8,22.8-70.1,189.1c-8.3,166.3-70.8,118.6-70.8,118.6"/>
				<path class="st5" d="M510.8,101.1c3.5,109.3-61.8,22.8-70,189.1C432.6,456.6,370,408.9,370,408.9"/>
				<path class="st5" d="M510.7,101.1c3.5,109.3-61.8,22.9-69.9,189.2C432.7,456.5,370.1,409,370.1,409"/>
				<path class="st5" d="M510.5,101c3.7,109.3-61.8,23-69.7,189.3c-7.9,166.3-70.6,118.8-70.6,118.8"/>
				<path class="st5" d="M510.3,100.8c3.8,109.2-61.8,23.1-69.5,189.4c-7.7,166.3-70.5,118.9-70.5,118.9"/>
				<path class="st5" d="M510.1,100.7c4,109.2-61.8,23.2-69.3,189.5c-7.4,166.3-70.3,119.1-70.3,119.1"/>
				<path class="st5" d="M509.8,100.5c4.2,109.2-61.8,23.4-68.9,189.7c-7.1,166.3-70.2,119.3-70.2,119.3"/>
				<path class="st5" d="M509.4,100.3c4.4,109.2-61.8,23.6-68.6,189.9c-6.8,166.3-69.9,119.5-69.9,119.5"/>
				<path class="st5" d="M509,100.1c4.7,109.1-61.8,23.8-68.2,190.1c-6.4,166.3-69.7,119.7-69.7,119.7"/>
				<path class="st5" d="M508.6,99.8c5,109.1-61.8,24.1-67.7,190.3c-5.9,166.3-69.4,120-69.4,120"/>
				<path class="st5" d="M508.1,99.5c5.3,109-61.8,24.3-67.2,190.6c-5.4,166.2-69.1,120.2-69.1,120.2"/>
				<path class="st5" d="M507.5,99.2c5.7,109-61.7,24.6-66.6,190.8c-4.9,166.2-68.8,120.5-68.8,120.5"/>
				<path class="st5" d="M506.9,98.9c6.1,108.9-61.7,24.9-66,191.1c-4.3,166.2-68.4,120.9-68.4,120.9"/>
				<path class="st5" d="M506.3,98.5c6.5,108.8-61.7,25.3-65.3,191.5c-3.7,166.2-68.1,121.2-68.1,121.2"/>
				<path class="st5" d="M505.6,98.1c7,108.8-61.7,25.7-64.6,191.8c-3,166.1-67.6,121.6-67.6,121.6"/>
				<path class="st5" d="M504.8,97.7c7.5,108.7-61.6,26.1-63.9,192.2c-2.2,166.1-67.2,122-67.2,122"/>
				<path class="st5" d="M504,97.3c8,108.6-61.6,26.5-63,192.6c-1.5,166.1-66.7,122.5-66.7,122.5"/>
				<path class="st5" d="M503.2,96.8c8.5,108.5-61.5,27-62.2,193c-0.6,166-66.2,122.9-66.2,122.9"/>
				<path class="st5" d="M502.2,96.3c9.1,108.4-61.5,27.4-61.2,193.4c0.3,165.9-65.6,123.4-65.6,123.4"/>
				<path class="st5" d="M501.3,95.8C511,204,439.9,123.7,441,289.6c1.2,165.9-65,123.9-65,123.9"/>
				<path class="st5" d="M500.3,95.2c10.4,108.1-61.4,28.5-59.2,194.3c2.1,165.8-64.4,124.4-64.4,124.4"/>
				<path class="st5" d="M499.2,94.7c11.1,108-61.3,29-58.1,194.8c3.2,165.7-63.8,125-63.8,125"/>
				<path class="st5" d="M498.1,94.1c11.8,107.8-61.2,29.6-57,195.2C445.3,455,378,414.9,378,414.9"/>
				<path class="st5" d="M496.9,93.5c12.5,107.7-61.1,30.2-55.8,195.7c5.3,165.5-62.4,126.1-62.4,126.1"/>
				<path class="st5" d="M495.6,92.8c13.3,107.5-61,30.9-54.5,196.3c6.5,165.4-61.6,126.7-61.6,126.7"/>
				<path class="st5" d="M494.3,92.2c14.1,107.3-60.9,31.5-53.2,196.8c7.7,165.3-60.8,127.4-60.8,127.4"/>
				<path class="st5" d="M492.9,91.5c14.9,107.1-60.8,32.2-51.9,197.3c8.9,165.1-60,128-60,128"/>
				<path class="st5" d="M491.5,90.8c15.8,106.9-60.7,32.9-50.4,197.9c10.2,164.9-59.1,128.7-59.1,128.7"/>
				<path class="st5" d="M490,90.1c16.6,106.7-60.5,33.7-49,198.4c11.6,164.8-58.2,129.4-58.2,129.4"/>
				<path class="st5" d="M488.4,89.4c17.6,106.4-60.4,34.4-47.4,199c12.9,164.5-57.2,130.1-57.2,130.1"/>
				<path class="st5" d="M486.8,88.6c18.5,106.1-60.2,35.2-45.8,199.5C455.3,452.5,384.7,419,384.7,419"/>
				<path class="st5" d="M485.1,87.9c19.5,105.9-60,36-44.2,200.1c15.8,164.1-55.2,131.5-55.2,131.5"/>
				<path class="st5" d="M483.3,87.1c20.5,105.5-59.8,36.9-42.4,200.7c17.4,163.8-54.1,132.3-54.1,132.3"/>
				<path class="st5" d="M481.5,86.3c21.5,105.2-59.6,37.7-40.7,201.3c18.9,163.5-53,133.1-53,133.1"/>
				<path class="st5" d="M479.6,85.5c22.5,104.9-59.3,38.6-38.8,201.8c20.5,163.2-51.8,133.8-51.8,133.8"/>
				<path class="st5" d="M477.6,84.6c23.6,104.5-59.1,39.6-36.9,202.4C462.8,449.9,390,421.7,390,421.7"/>
				<path class="st5" d="M475.5,83.8c24.7,104.1-58.8,40.5-34.9,203c23.9,162.5-49.4,135.4-49.4,135.4"/>
				<path class="st5" d="M473.4,83c25.9,103.7-58.5,41.5-32.9,203.5c25.6,162.1-48.1,136.2-48.1,136.2"/>
				<path class="st5" d="M471.2,82.1c27,103.3-58.2,42.5-30.8,204.1c27.4,161.7-46.7,137-46.7,137"/>
				<path class="st5" d="M468.9,81.2c28.2,102.8-57.8,43.5-28.6,204.7c29.2,161.2-45.3,137.8-45.3,137.8"/>
				<path class="st5" d="M466.5,80.4c29.4,102.3-57.5,44.5-26.4,205.2c31,160.7-43.9,138.7-43.9,138.7"/>
				<path class="st5" d="M464,79.5c30.6,101.8-57,45.6-24.1,205.7c32.9,160.2-42.4,139.5-42.4,139.5"/>
				<path class="st5" d="M461.5,78.6c31.9,101.3-56.6,46.6-21.8,206.2c34.9,159.6-40.8,140.3-40.8,140.3"/>
				<path class="st5" d="M458.9,77.8c33.1,100.7-56.2,47.7-19.3,206.7c36.8,159-39.2,141.1-39.2,141.1"/>
				<path class="st5" d="M456.1,76.9c34.4,100.1-55.7,48.8-16.8,207.2c38.8,158.3-37.5,142-37.5,142"/>
				<path class="st5" d="M453.3,76c35.7,99.4-55.2,50-14.3,207.6c40.9,157.6-35.8,142.8-35.8,142.8"/>
				<path class="st5" d="M450.4,75.2c37.1,98.8-54.6,51.1-11.6,208c43,156.9-34.1,143.6-34.1,143.6"/>
				<path class="st5" d="M447.5,74.3c38.4,98.1-54,52.3-8.9,208.4c45.1,156.1-32.2,144.4-32.2,144.4"/>
				<path class="st5" d="M444.4,73.5c39.8,97.3-53.4,53.5-6.2,208.8c47.2,155.3-30.3,145.2-30.3,145.2"/>
				<path class="st5" d="M441.2,72.6c41.2,96.6-52.7,54.7-3.3,209.1c49.4,154.4-28.4,146-28.4,146"/>
				<path class="st5" d="M437.9,71.8c42.6,95.8-52,55.9-0.4,209.4C489.2,434.6,411.1,428,411.1,428"/>
				<path class="st5" d="M434.5,71c44,94.9-51.3,57.2,2.6,209.6c53.9,152.5-24.3,147.6-24.3,147.6"/>
				<path class="st5" d="M431,70.2c45.4,94-50.5,58.4,5.6,209.8c56.2,151.4-22.2,148.3-22.2,148.3"/>
				<path class="st5" d="M427.5,69.5c46.8,93.1-49.7,59.7,8.8,210c58.5,150.3-20,149-20,149"/>
				<path class="st5" d="M423.8,68.7c48.3,92.1-48.8,60.9,12,210.1c60.8,149.2-17.8,149.7-17.8,149.7"/>
				<path class="st5" d="M420,68c49.7,91.1-47.9,62.2,15.2,210.2c63.2,148-15.5,150.4-15.5,150.4"/>
				<path class="st5" d="M416.1,67.4c51.2,90.1-47,63.5,18.6,210.2c65.5,146.7-13.1,151-13.1,151"/>
				<path class="st5" d="M412.1,66.8c52.7,89-46,64.8,22,210.1c67.9,145.3-10.7,151.7-10.7,151.7"/>
				<path class="st5" d="M408,66.2c54.2,87.8-44.9,66.1,25.4,210c70.3,143.9-8.2,152.2-8.2,152.2"/>
				<path class="st5" d="M403.7,65.6c55.7,86.7-43.8,67.4,29,209.8c72.8,142.5-5.6,152.8-5.6,152.8"/>
				<path class="st5" d="M399.4,65.1c57.2,85.4-42.6,68.6,32.6,209.6c75.2,140.9-3,153.3-3,153.3"/>
				<path class="st5" d="M394.9,64.7c58.6,84.1-41.4,69.9,36.3,209.2c77.7,139.3-0.3,153.8-0.3,153.8"/>
				<path class="st5" d="M390.4,64.3c60.1,82.8-40.2,71.2,40,208.8c80.2,137.6,2.5,154.2,2.5,154.2"/>
				<path class="st5" d="M385.7,64c61.6,81.4-38.8,72.5,43.8,208.4c82.7,135.9,5.3,154.5,5.3,154.5"/>
				<path class="st5" d="M380.9,63.7c63.1,80-37.5,73.8,47.7,207.8c85.2,134,8.2,154.9,8.2,154.9"/>
				<path class="st5" d="M376,63.5c64.6,78.5-36,75,51.7,207.1c87.7,132.1,11.2,155.1,11.2,155.1"/>
				<path class="st5" d="M370.9,63.4c66.1,77-34.5,76.2,55.7,206.4c90.2,130.2,14.2,155.3,14.2,155.3"/>
				<path class="st5" d="M365.8,63.4c67.6,75.4-32.9,77.5,59.7,205.6c92.7,128.1,17.3,155.5,17.3,155.5"/>
				<path class="st5" d="M360.5,63.4c69,73.8-31.3,78.7,63.9,204.6c95.2,125.9,20.4,155.5,20.4,155.5"/>
				<path class="st5" d="M355.1,63.6c70.5,72.1-29.6,79.8,68.1,203.6c97.7,123.7,23.7,155.5,23.7,155.5"/>
				<path class="st5" d="M349.6,63.8c71.9,70.4-27.9,81,72.3,202.4c100.2,121.4,27,155.4,27,155.4"/>
				<path class="st5" d="M344,64.2c73.3,68.6-26.1,82.1,76.6,201.1c102.7,119,30.3,155.3,30.3,155.3"/>
				<path class="st5" d="M338.2,64.6c74.7,66.8-24.2,83.2,81,199.7c105.1,116.5,33.7,155,33.7,155"/>
				<path class="st5" d="M332.3,65.2c76.1,64.9-22.2,84.3,85.4,198.2c107.6,113.9,37.2,154.7,37.2,154.7"/>
				<path class="st5" d="M326.4,65.9c77.5,62.9-20.2,85.3,89.8,196.6c110,111.3,40.7,154.3,40.7,154.3"/>
				<path class="st5" d="M320.3,66.7c78.8,60.9-18.1,86.2,94.3,194.8C527,370,458.9,415.3,458.9,415.3"/>
				<path class="st5" d="M314.1,67.6c80.1,58.9-16,87.2,98.8,192.9c114.8,105.7,48,153.2,48,153.2"/>
				<path class="st5" d="M307.7,68.7c81.4,56.8-13.8,88,103.4,190.8C528.4,362.3,462.8,412,462.8,412"/>
				<path class="st5" d="M301.3,69.9c82.6,54.6-11.5,88.9,108,188.6s55.4,151.6,55.4,151.6"/>
				<path class="st5" d="M294.8,71.3c83.8,52.4-9.2,89.6,112.7,186.3c121.8,96.6,59.2,150.6,59.2,150.6"/>
				<path class="st5" d="M288.1,72.9c85,50.1-6.7,90.3,117.3,183.8c124.1,93.4,63.1,149.6,63.1,149.6"/>
				<path class="st5" d="M281.4,74.6c86.1,47.8-4.3,90.9,122,181.1c126.3,90.1,67,148.4,67,148.4"/>
				<path class="st5" d="M274.5,76.4c87.2,45.4-1.7,91.5,126.7,178.3c128.5,86.8,70.9,147.1,70.9,147.1"/>
				<path class="st5" d="M267.6,78.5c88.3,43,0.9,92,131.4,175.3C529.6,337,474,399.3,474,399.3"/>
				<path class="st5" d="M260.6,80.7c89.3,40.5,3.5,92.4,136.2,172.1c132.6,79.7,78.9,144,78.9,144"/>
				<path class="st5" d="M253.5,83.2c90.2,38,6.3,92.7,140.9,168.7c134.6,76,83,142.3,83,142.3"/>
				<path class="st5" d="M246.3,85.8c91.1,35.4,9,92.9,145.6,165.2c136.6,72.3,87.1,140.4,87.1,140.4"/>
				<path class="st5" d="M239,88.6c92,32.8,11.9,93.1,150.3,161.5c138.4,68.4,91.2,138.3,91.2,138.3"/>
				<path class="st5" d="M231.6,91.7c92.8,30.1,14.8,93.1,155,157.6c140.2,64.5,95.3,136.2,95.3,136.2"/>
				<path class="st5" d="M224.2,94.9c93.5,27.4,17.7,93.1,159.7,153.5c141.9,60.4,99.4,133.8,99.4,133.8"/>
				<path class="st5" d="M216.7,98.4c94.2,24.6,20.7,92.9,164.3,149.2C524.6,304,484.6,378.9,484.6,378.9"/>
				<path class="st5" d="M209.2,102.2C304,124,233,194.8,378.1,246.9C523.3,299,485.8,375.5,485.8,375.5"/>
				<path class="st5" d="M201.6,106.1c95.4,18.9,26.9,92.2,173.5,140C521.7,294,486.9,371.9,486.9,371.9"/>
				<path class="st5" d="M194,110.3c95.8,16.1,30,91.7,178,135.1c148,43.4,116,122.7,116,122.7"/>
				<path class="st5" d="M186.3,114.8c96.2,13.1,33.2,91.1,182.4,130c149.3,39,120.1,119.5,120.1,119.5"/>
				<path class="st5" d="M178.7,119.5c96.6,10.2,36.4,90.3,186.8,124.7c150.4,34.4,124.2,116.1,124.2,116.1"/>
				<path class="st5" d="M171,124.5c96.8,7.2,39.6,89.4,191.1,119.2c151.5,29.8,128.2,112.5,128.2,112.5"/>
				<path class="st5" d="M163.3,129.8c97,4.1,42.9,88.3,195.3,113.5C511.1,268.4,490.9,352,490.9,352"/>
				<path class="st5" d="M155.6,135.3c97.1,1.1,46.1,87.2,199.4,107.5c153.3,20.3,136.2,104.8,136.2,104.8"/>
				<path class="st5" d="M148,141.1c97.1-2,49.4,85.8,203.4,101.3c154,15.5,140.2,100.6,140.2,100.6"/>
			</g>
		</g>
	</g>
</g>
</svg>
